<svg width="22" height="20" viewBox="0 0 22 20" fill="none" xmlns="http://www.w3.org/2000/svg">
<path d="M15.5455 18.01V16.1918C15.5455 15.2274 15.1623 14.3025 14.4804 13.6205C13.7984 12.9386 12.8735 12.5555 11.9091 12.5555H4.63636C3.67194 12.5555 2.74702 12.9386 2.06507 13.6205C1.38312 14.3025 1 15.2274 1 16.1918V18.01M21 18.01V16.1918C20.9994 15.3861 20.7312 14.6034 20.2376 13.9666C19.744 13.3299 19.0528 12.8751 18.2727 12.6736M14.6364 1.76454C15.4186 1.96482 16.1119 2.41973 16.6069 3.05755C17.102 3.69538 17.3708 4.47984 17.3708 5.28727C17.3708 6.0947 17.102 6.87916 16.6069 7.51699C16.1119 8.15482 15.4186 8.60972 14.6364 8.81M11.9091 5.28273C11.9091 7.29103 10.281 8.91909 8.27273 8.91909C6.26442 8.91909 4.63636 7.29103 4.63636 5.28273C4.63636 3.27442 6.26442 1.64636 8.27273 1.64636C10.281 1.64636 11.9091 3.27442 11.9091 5.28273Z" stroke="#C2CFE0" stroke-width="2" stroke-linecap="round" stroke-linejoin="round"/>
</svg>
