<svg width="22" height="25" viewBox="0 0 22 25" fill="none" xmlns="http://www.w3.org/2000/svg">
<path d="M21 5.00997C21 6.85092 16.5228 8.3433 11 8.3433C5.47715 8.3433 1 6.85092 1 5.00997M21 5.00997C21 3.16902 16.5228 1.67664 11 1.67664C5.47715 1.67664 1 3.16902 1 5.00997M21 5.00997V20.5655C21 22.41 16.5556 23.8989 11 23.8989C5.44444 23.8989 1 22.41 1 20.5655V5.00997M21 12.7877C21 14.6322 16.5556 16.1211 11 16.1211C5.44444 16.1211 1 14.6322 1 12.7877" stroke="#C2CFE0" stroke-width="2" stroke-linecap="round" stroke-linejoin="round"/>
</svg>
