<svg width="22" height="22" viewBox="0 0 22 22" fill="none" xmlns="http://www.w3.org/2000/svg">
<path d="M1 1.55542H4.63636L7.07273 13.7281C7.15586 14.1467 7.38355 14.5227 7.71595 14.7902C8.04835 15.0578 8.46427 15.2 8.89091 15.1918H17.7273C18.1539 15.2 18.5698 15.0578 18.9022 14.7902C19.2346 14.5227 19.4623 14.1467 19.5455 13.7281L21 6.10087H5.54545M9.18182 19.7372C9.18182 20.2393 8.7748 20.6463 8.27273 20.6463C7.77065 20.6463 7.36364 20.2393 7.36364 19.7372C7.36364 19.2352 7.77065 18.8281 8.27273 18.8281C8.7748 18.8281 9.18182 19.2352 9.18182 19.7372ZM19.1818 19.7372C19.1818 20.2393 18.7748 20.6463 18.2727 20.6463C17.7707 20.6463 17.3636 20.2393 17.3636 19.7372C17.3636 19.2352 17.7707 18.8281 18.2727 18.8281C18.7748 18.8281 19.1818 19.2352 19.1818 19.7372Z" stroke="#C2CFE0" stroke-width="2" stroke-linecap="round" stroke-linejoin="round"/>
</svg>
