<svg width="23" height="23" viewBox="0 0 23 23" fill="none" xmlns="http://www.w3.org/2000/svg">
<path d="M11.6272 14.0458C13.1334 14.0458 14.3545 12.8247 14.3545 11.3185C14.3545 9.81225 13.1334 8.59121 11.6272 8.59121C10.121 8.59121 8.89992 9.81225 8.89992 11.3185C8.89992 12.8247 10.121 14.0458 11.6272 14.0458Z" stroke="#C2CFE0" stroke-width="2" stroke-linecap="round" stroke-linejoin="round"/>
<path d="M18.3545 14.0458C18.2335 14.32 18.1974 14.6241 18.2508 14.919C18.3043 15.2139 18.4449 15.486 18.6545 15.7003L18.709 15.7548C18.8781 15.9237 19.0122 16.1242 19.1037 16.345C19.1952 16.5657 19.2423 16.8023 19.2423 17.0412C19.2423 17.2801 19.1952 17.5167 19.1037 17.7375C19.0122 17.9582 18.8781 18.1587 18.709 18.3276C18.5402 18.4966 18.3396 18.6307 18.1189 18.7222C17.8982 18.8137 17.6616 18.8608 17.4227 18.8608C17.1837 18.8608 16.9471 18.8137 16.7264 18.7222C16.5057 18.6307 16.3051 18.4966 16.1363 18.3276L16.0817 18.273C15.8675 18.0634 15.5954 17.9229 15.3005 17.8694C15.0056 17.8159 14.7014 17.852 14.4272 17.973C14.1583 18.0883 13.929 18.2796 13.7675 18.5235C13.606 18.7674 13.5193 19.0532 13.5181 19.3458V19.5003C13.5181 19.9825 13.3265 20.445 12.9856 20.7859C12.6446 21.1269 12.1821 21.3185 11.6999 21.3185C11.2177 21.3185 10.7553 21.1269 10.4143 20.7859C10.0733 20.445 9.88174 19.9825 9.88174 19.5003V19.4185C9.8747 19.1176 9.77731 18.8258 9.60221 18.5809C9.42711 18.3361 9.18241 18.1496 8.89992 18.0458C8.62573 17.9247 8.32157 17.8886 8.02666 17.9421C7.73176 17.9956 7.45963 18.1362 7.24538 18.3458L7.19083 18.4003C7.02197 18.5693 6.82145 18.7035 6.60073 18.795C6.38 18.8865 6.14341 18.9335 5.90447 18.9335C5.66553 18.9335 5.42894 18.8865 5.20821 18.795C4.98749 18.7035 4.78697 18.5693 4.61811 18.4003C4.44906 18.2314 4.31495 18.0309 4.22345 17.8102C4.13195 17.5895 4.08486 17.3529 4.08486 17.1139C4.08486 16.875 4.13195 16.6384 4.22345 16.4177C4.31495 16.197 4.44906 15.9964 4.61811 15.8276L4.67265 15.773C4.88223 15.5588 5.02282 15.2866 5.07629 14.9917C5.12976 14.6968 5.09367 14.3927 4.97265 14.1185C4.85741 13.8496 4.66607 13.6203 4.42217 13.4588C4.17827 13.2972 3.89246 13.2106 3.59992 13.2094H3.44538C2.96317 13.2094 2.50071 13.0178 2.15973 12.6769C1.81876 12.3359 1.6272 11.8734 1.6272 11.3912C1.6272 10.909 1.81876 10.4465 2.15973 10.1056C2.50071 9.76459 2.96317 9.57303 3.44538 9.57303H3.5272C3.8281 9.56599 4.11993 9.46859 4.36474 9.29349C4.60956 9.11839 4.79603 8.8737 4.89992 8.59121C5.02094 8.31701 5.05704 8.01285 5.00357 7.71795C4.95009 7.42304 4.8095 7.15092 4.59992 6.93666L4.54538 6.88212C4.37633 6.71326 4.24222 6.51273 4.15073 6.29201C4.05923 6.07129 4.01213 5.83469 4.01213 5.59575C4.01213 5.35682 4.05923 5.12022 4.15073 4.8995C4.24222 4.67878 4.37633 4.47825 4.54538 4.30939C4.71424 4.14034 4.91476 4.00624 5.13549 3.91474C5.35621 3.82324 5.59281 3.77614 5.83174 3.77614C6.07068 3.77614 6.30727 3.82324 6.528 3.91474C6.74872 4.00624 6.94925 4.14034 7.11811 4.30939L7.17265 4.36394C7.38691 4.57351 7.65903 4.7141 7.95393 4.76758C8.24884 4.82105 8.553 4.78495 8.8272 4.66394H8.89992C9.16881 4.5487 9.39812 4.35735 9.55965 4.11345C9.72117 3.86955 9.80785 3.58374 9.80902 3.29121V3.13666C9.80902 2.65445 10.0006 2.19199 10.3415 1.85101C10.6825 1.51004 11.145 1.31848 11.6272 1.31848C12.1094 1.31848 12.5719 1.51004 12.9128 1.85101C13.2538 2.19199 13.4454 2.65445 13.4454 3.13666V3.21848C13.4465 3.51101 13.5332 3.79682 13.6947 4.04072C13.8563 4.28462 14.0856 4.47597 14.3545 4.59121C14.6287 4.71222 14.9328 4.74832 15.2277 4.69485C15.5226 4.64138 15.7948 4.50079 16.009 4.29121L16.0636 4.23666C16.2324 4.06762 16.4329 3.93351 16.6537 3.84201C16.8744 3.75051 17.111 3.70341 17.3499 3.70341C17.5889 3.70341 17.8255 3.75051 18.0462 3.84201C18.2669 3.93351 18.4674 4.06762 18.6363 4.23666C18.8053 4.40552 18.9394 4.60605 19.0309 4.82677C19.1224 5.0475 19.1695 5.28409 19.1695 5.52303C19.1695 5.76196 19.1224 5.99856 19.0309 6.21928C18.9394 6.44001 18.8053 6.64053 18.6363 6.80939L18.5817 6.86394C18.3722 7.07819 18.2316 7.35031 18.1781 7.64522C18.1246 7.94012 18.1607 8.24429 18.2817 8.51848V8.59121C18.397 8.86009 18.5883 9.08941 18.8322 9.25093C19.0761 9.41245 19.3619 9.49913 19.6545 9.5003H19.809C20.2912 9.5003 20.7537 9.69186 21.0947 10.0328C21.4356 10.3738 21.6272 10.8363 21.6272 11.3185C21.6272 11.8007 21.4356 12.2632 21.0947 12.6041C20.7537 12.9451 20.2912 13.1367 19.809 13.1367H19.7272C19.4347 13.1378 19.1489 13.2245 18.905 13.386C18.6611 13.5476 18.4697 13.7769 18.3545 14.0458Z" stroke="#C2CFE0" stroke-width="2" stroke-linecap="round" stroke-linejoin="round"/>
</svg>
